<mxfile host="app.diagrams.net" modified="2021-09-26T12:59:22.449Z" agent="5.0 (Macintosh; Intel Mac OS X 10_15_7) AppleWebKit/537.36 (KHTML, like Gecko) Chrome/94.0.4606.61 Safari/537.36" etag="muJRxSMVI9Q4hqhcDJC6" version="15.2.9" type="github">
  <diagram id="0dVZTq0QtEGYA2F2lj2O" name="第 1 页">
    <mxGraphModel dx="1426" dy="1050" grid="1" gridSize="10" guides="1" tooltips="1" connect="1" arrows="1" fold="1" page="1" pageScale="1" pageWidth="827" pageHeight="1169" math="0" shadow="0">
      <root>
        <mxCell id="0" />
        <mxCell id="1" parent="0" />
        <mxCell id="J85B605BpeBv72gH5vCS-1" value="1" style="rounded=0;whiteSpace=wrap;html=1;dashed=1;strokeWidth=2;fillColor=#ffe6cc;strokeColor=#d79b00;fontSize=24;" vertex="1" parent="1">
          <mxGeometry x="280" y="300" width="80" height="60" as="geometry" />
        </mxCell>
        <mxCell id="J85B605BpeBv72gH5vCS-2" value="2" style="rounded=0;whiteSpace=wrap;html=1;dashed=1;strokeWidth=2;fillColor=#ffe6cc;strokeColor=#d79b00;fontSize=24;" vertex="1" parent="1">
          <mxGeometry x="360" y="300" width="80" height="60" as="geometry" />
        </mxCell>
        <mxCell id="J85B605BpeBv72gH5vCS-3" value="3" style="rounded=0;whiteSpace=wrap;html=1;dashed=1;strokeWidth=2;fillColor=#ffe6cc;strokeColor=#d79b00;fontSize=24;" vertex="1" parent="1">
          <mxGeometry x="440" y="300" width="80" height="60" as="geometry" />
        </mxCell>
        <mxCell id="J85B605BpeBv72gH5vCS-5" value="1" style="rounded=0;whiteSpace=wrap;html=1;dashed=1;strokeWidth=2;fillColor=#fff2cc;strokeColor=#d6b656;fontSize=24;" vertex="1" parent="1">
          <mxGeometry x="280" y="490" width="80" height="60" as="geometry" />
        </mxCell>
        <mxCell id="J85B605BpeBv72gH5vCS-6" value="2" style="rounded=0;whiteSpace=wrap;html=1;dashed=1;strokeWidth=2;fillColor=#fff2cc;strokeColor=#d6b656;fontSize=24;" vertex="1" parent="1">
          <mxGeometry x="360" y="490" width="80" height="60" as="geometry" />
        </mxCell>
        <mxCell id="J85B605BpeBv72gH5vCS-7" value="3" style="rounded=0;whiteSpace=wrap;html=1;dashed=1;strokeWidth=2;fillColor=#fff2cc;strokeColor=#d6b656;fontSize=24;" vertex="1" parent="1">
          <mxGeometry x="440" y="490" width="80" height="60" as="geometry" />
        </mxCell>
        <mxCell id="J85B605BpeBv72gH5vCS-8" value="5" style="rounded=0;whiteSpace=wrap;html=1;dashed=1;strokeWidth=2;fillColor=#fff2cc;strokeColor=#d6b656;fontSize=24;" vertex="1" parent="1">
          <mxGeometry x="520" y="490" width="80" height="60" as="geometry" />
        </mxCell>
        <mxCell id="J85B605BpeBv72gH5vCS-9" value="0" style="rounded=0;whiteSpace=wrap;html=1;dashed=1;strokeWidth=2;fillColor=#fff2cc;strokeColor=#d6b656;fontSize=24;" vertex="1" parent="1">
          <mxGeometry x="600" y="490" width="80" height="60" as="geometry" />
        </mxCell>
        <mxCell id="J85B605BpeBv72gH5vCS-10" value="0" style="rounded=0;whiteSpace=wrap;html=1;dashed=1;strokeWidth=2;fillColor=#fff2cc;strokeColor=#d6b656;fontSize=24;" vertex="1" parent="1">
          <mxGeometry x="680" y="490" width="80" height="60" as="geometry" />
        </mxCell>
        <mxCell id="J85B605BpeBv72gH5vCS-13" style="edgeStyle=orthogonalEdgeStyle;rounded=0;orthogonalLoop=1;jettySize=auto;html=1;fontSize=25;strokeWidth=2;dashed=1;" edge="1" parent="1" source="J85B605BpeBv72gH5vCS-12">
          <mxGeometry relative="1" as="geometry">
            <mxPoint x="270" y="330" as="targetPoint" />
          </mxGeometry>
        </mxCell>
        <mxCell id="J85B605BpeBv72gH5vCS-14" style="edgeStyle=orthogonalEdgeStyle;rounded=0;orthogonalLoop=1;jettySize=auto;html=1;exitX=1;exitY=0.5;exitDx=0;exitDy=0;fontSize=25;strokeWidth=2;" edge="1" parent="1" source="J85B605BpeBv72gH5vCS-12">
          <mxGeometry relative="1" as="geometry">
            <mxPoint x="270" y="520" as="targetPoint" />
            <Array as="points">
              <mxPoint x="200" y="330" />
              <mxPoint x="200" y="520" />
            </Array>
          </mxGeometry>
        </mxCell>
        <mxCell id="J85B605BpeBv72gH5vCS-12" value="array" style="rounded=1;whiteSpace=wrap;html=1;dashed=1;fontSize=25;strokeWidth=2;fillColor=#f8cecc;strokeColor=#b85450;" vertex="1" parent="1">
          <mxGeometry x="20" y="300" width="120" height="60" as="geometry" />
        </mxCell>
        <mxCell id="J85B605BpeBv72gH5vCS-18" style="edgeStyle=orthogonalEdgeStyle;rounded=0;orthogonalLoop=1;jettySize=auto;html=1;dashed=1;fontSize=25;strokeWidth=2;" edge="1" parent="1" source="J85B605BpeBv72gH5vCS-16">
          <mxGeometry relative="1" as="geometry">
            <mxPoint x="397.5" y="480" as="targetPoint" />
          </mxGeometry>
        </mxCell>
        <mxCell id="J85B605BpeBv72gH5vCS-16" value="" style="shape=curlyBracket;whiteSpace=wrap;html=1;rounded=1;fontSize=25;strokeWidth=2;rotation=-90;" vertex="1" parent="1">
          <mxGeometry x="387.5" y="282.5" width="20" height="235" as="geometry" />
        </mxCell>
        <mxCell id="J85B605BpeBv72gH5vCS-19" value="" style="shape=curlyBracket;whiteSpace=wrap;html=1;rounded=1;fontSize=25;strokeWidth=2;rotation=-90;" vertex="1" parent="1">
          <mxGeometry x="625.63" y="461.88" width="31.25" height="242.5" as="geometry" />
        </mxCell>
        <mxCell id="J85B605BpeBv72gH5vCS-20" value="expansion" style="text;html=1;align=center;verticalAlign=middle;resizable=0;points=[];autosize=1;strokeColor=none;fillColor=none;fontSize=25;" vertex="1" parent="1">
          <mxGeometry x="576.26" y="600" width="130" height="40" as="geometry" />
        </mxCell>
        <mxCell id="J85B605BpeBv72gH5vCS-22" value="copy element" style="text;html=1;align=center;verticalAlign=middle;resizable=0;points=[];autosize=1;strokeColor=none;fillColor=none;fontSize=25;" vertex="1" parent="1">
          <mxGeometry x="430" y="420" width="160" height="40" as="geometry" />
        </mxCell>
      </root>
    </mxGraphModel>
  </diagram>
</mxfile>
